<svg version="1.1" id="Calque_1" xmlns="http://www.w3.org/2000/svg" xmlns:xlink="http://www.w3.org/1999/xlink" x="0px" y="0px"
	 viewBox="0 0 220 45" style="enable-background:new 0 0 220 45;" xml:space="preserve">
<style type="text/css">
	.st0{fill:#000000;}
</style>
<g>
	<g>
		<path class="st0" d="M11.5,6.33c0-2.61-1.55-4.15-4.21-4.15H2.57v8.34h4.7C9.93,10.51,11.5,8.93,11.5,6.33 M13.89,6.33
			c0,3.8-2.5,6.08-6.76,6.08H2.57v7.96H0.26V0.27h6.9C11.4,0.27,13.89,2.52,13.89,6.33"/>
	</g>
</g>
<g>
	<path class="st0" d="M22.94,0.49h0.05l4.16,12.82h-8.39L22.94,0.49z M20.95,0.27l-6.9,20.1h2.39l1.68-5.16h9.61l1.68,5.16h2.52
		l-6.87-20.1C25.06,0.27,20.95,0.27,20.95,0.27z"/>
</g>
<g>
	<polygon class="st0" points="47.49,0.27 47.54,20.15 47.49,20.15 39.01,0.27 34.88,0.27 34.88,20.37 37.14,20.37 37.06,0.49 
		37.11,0.49 45.61,20.37 49.69,20.37 49.69,0.27 	"/>
</g>
<g>
	<g>
		<path class="st0" d="M68.75,10.32c0-5.24-2.36-8.34-6.33-8.34c-3.99,0-6.3,3.1-6.3,8.34s2.31,8.34,6.3,8.34
			C66.38,18.66,68.75,15.56,68.75,10.32 M53.7,10.32C53.7,3.83,56.96,0,62.42,0c5.49,0,8.72,3.83,8.72,10.32s-3.23,10.32-8.72,10.32
			C56.96,20.64,53.7,16.81,53.7,10.32"/>
	</g>
	<g>
		<path class="st0" d="M82.49,9.97c2.74,0,4.34-1.49,4.34-3.99c0-2.39-1.63-3.8-4.34-3.8h-5.02v7.79H82.49z M89.82,20.37h-2.61
			l-5.02-8.58h-4.72v8.58h-2.31V0.27h7.17c4.32,0,6.9,2.06,6.9,5.54c0,3.72-2.5,5.92-6.76,5.92v0.06c1.36,0,2.82,0.92,3.77,2.58
			L89.82,20.37z"/>
	</g>
</g>
<g>
	<path class="st0" d="M99.95,0.49H100l4.15,12.82h-8.39L99.95,0.49z M97.96,0.27l-6.9,20.1h2.39l1.68-5.16h9.61l1.68,5.16h2.52
		l-6.87-20.1C102.07,0.27,97.96,0.27,97.96,0.27z"/>
</g>
<g>
	<polygon class="st0" points="127.64,0.27 122.1,20.15 122.02,20.15 116.73,0.27 112.19,0.27 111.59,20.37 113.8,20.37 114.37,0.49 
		114.42,0.49 119.91,20.37 124.09,20.37 129.84,0.49 129.9,0.49 130.47,20.37 132.8,20.37 132.18,0.27 	"/>
</g>
<g>
	<path class="st0" d="M144.29,0.49h0.05l4.15,12.82h-8.39L144.29,0.49z M142.31,0.27l-6.9,20.1h2.39l1.68-5.16h9.61l1.68,5.16h2.52
		l-6.87-20.1C146.42,0.27,142.31,0.27,142.31,0.27z"/>
</g>
<g>
	<path class="st0" d="M24.32,24.81h0.05l4.16,12.82h-8.39L24.32,24.81z M22.33,24.59l-6.9,20.1h2.39l1.68-5.16h9.61l1.68,5.16h2.53
		l-6.87-20.1C26.45,24.59,22.33,24.59,22.33,24.59z"/>
</g>
<g>
	<g>
		<path class="st0" d="M43.6,34.29c2.74,0,4.34-1.49,4.34-3.99c0-2.39-1.63-3.8-4.34-3.8h-5.02v7.79H43.6z M50.93,44.69h-2.61
			l-5.02-8.58h-4.73v8.58h-2.31v-20.1h7.17c4.32,0,6.9,2.06,6.9,5.54c0,3.72-2.5,5.92-6.76,5.92v0.06c1.36,0,2.82,0.92,3.77,2.58
			L50.93,44.69z"/>
	</g>
	<g>
		<path class="st0" d="M61.87,44.96c-5.43,0-8.66-3.83-8.66-10.32s3.23-10.32,8.66-10.32c4.4,0,7.39,2.77,8.12,7.44h-2.25
			c-0.65-3.45-2.85-5.46-5.87-5.46c-3.94,0-6.25,3.1-6.25,8.34s2.31,8.34,6.25,8.34c3.04,0,5.21-2.09,5.87-5.65h2.25
			C69.26,42.11,66.24,44.96,61.87,44.96"/>
	</g>
</g>
<g>
	<polygon class="st0" points="86.17,24.59 86.17,33.53 75.99,33.53 75.99,24.59 73.68,24.59 73.68,44.69 75.99,44.69 75.99,35.43 
		86.17,35.43 86.17,44.69 88.48,44.69 88.48,24.59 	"/>
</g>
<g>
	<rect x="93.64" y="24.59" class="st0" width="2.31" height="20.1"/>
</g>
<g>
	<polygon class="st0" points="99.04,24.59 99.04,26.49 105.23,26.49 105.23,44.69 107.57,44.69 107.57,26.49 113.76,26.49 
		113.76,24.59 	"/>
</g>
<g>
	<polygon class="st0" points="116.86,24.59 116.86,44.69 130.08,44.69 130.08,42.79 119.17,42.79 119.17,35.26 128.83,35.26 
		128.83,33.36 119.17,33.36 119.17,26.49 129.78,26.49 129.78,24.59 	"/>
</g>
<g>
	<g>
		<path class="st0" d="M141,44.96c-5.43,0-8.66-3.83-8.66-10.32s3.23-10.32,8.66-10.32c4.4,0,7.39,2.77,8.12,7.44h-2.25
			c-0.65-3.45-2.85-5.46-5.87-5.46c-3.94,0-6.25,3.1-6.25,8.34s2.31,8.34,6.25,8.34c3.04,0,5.21-2.09,5.87-5.65h2.25
			C148.38,42.11,145.37,44.96,141,44.96"/>
	</g>
</g>
<g>
	<polygon class="st0" points="150.37,24.59 150.37,26.49 156.56,26.49 156.56,44.69 158.89,44.69 158.89,26.49 165.08,26.49 
		165.08,24.59 	"/>
</g>
<g>
	<g>
		<path class="st0" d="M180.45,24.59h2.2v13.17c0,4.51-2.74,7.2-7.36,7.2c-4.59,0-7.33-2.69-7.33-7.2V24.59h2.34v13.33
			c0,3.18,1.87,5.05,5.05,5.05c3.21,0,5.11-1.87,5.11-5.05L180.45,24.59L180.45,24.59z"/>
	</g>
	<g>
		<path class="st0" d="M194.93,34.29c2.74,0,4.34-1.49,4.34-3.99c0-2.39-1.63-3.8-4.34-3.8h-5.02v7.79H194.93z M202.26,44.69h-2.61
			l-5.02-8.58h-4.72v8.58h-2.31v-20.1h7.17c4.32,0,6.9,2.06,6.9,5.54c0,3.72-2.5,5.92-6.76,5.92v0.06c1.36,0,2.82,0.92,3.77,2.58
			L202.26,44.69z"/>
	</g>
</g>
<g>
	<polygon class="st0" points="205.73,24.59 205.73,44.69 218.96,44.69 218.96,42.79 208.04,42.79 208.04,35.26 217.71,35.26 
		217.71,33.36 208.04,33.36 208.04,26.49 218.66,26.49 218.66,24.59 	"/>
</g>
<g>
	<g>
		<path class="st0" d="M10.32,44.7H9.97V24.53h0.35C10.32,24.53,10.32,44.7,10.32,44.7z M0.35,44.7H0V24.53h0.35V44.7z M218.2,20.52
			h-0.35V0.35h0.35V20.52z M208.37,20.52h-0.35V0.35h0.35V20.52z M198.54,20.52h-0.35V0.35h0.35V20.52z M188.7,20.52h-0.35V0.35
			h0.35V20.52z M178.87,20.52h-0.35V0.35h0.35V20.52z M169.04,20.52h-0.35V0.35h0.35V20.52z M159.21,20.52h-0.35V0.35h0.35V20.52z"
			/>
	</g>
</g>
</svg>

